# xmcd CD database file
#
# Track frame offsets:
#	150
#	22412
#	45747
#	67232
#	91920
#	117987
#	143895
#	165745
#	186430
#	216057
#	227177
#	257487
#	285167
#	305425
#	318377
#
# Disc length: 4534 seconds
#
# Revision: 0
# Processed by: cddbd v1.5.2PL0 Copyright (c) Steve Scherf et al.
# Submitted via: CDex 1.70beta2
#
DISCID=de11b40f
DTITLE=The Albion Jazz Band - They're All Nice Tunes
DYEAR=1992
DGENRE=Jazz
TTITLE0=Into Each Life Some Rain Must Fall
TTITLE1=Bouncing Around
TTITLE2=The Sunshine of Your Smile
TTITLE3=Sweetheart of All My Dreams
TTITLE4=Gravier Street Blues
TTITLE5=I Said I Wasn't Gonna Tell Nobody
TTITLE6=Froggie Moore
TTITLE7=I'll Follow the Sun
TTITLE8=When Your Hair Has Turned to Silver (I Will Love You Just the Same)
TTITLE9=Slide, Frog, Slide
TTITLE10=The Postman's Lament
TTITLE11=Daddy's Little Girl
TTITLE12=West End Blues
TTITLE13=Iko Iko
TTITLE14=I Really Miss You, Baby
EXTD=YEAR: 1992
EXTT0=
EXTT1=
EXTT2=
EXTT3=
EXTT4=
EXTT5=
EXTT6=
EXTT7=
EXTT8=
EXTT9=
EXTT10=
EXTT11=
EXTT12=
EXTT13=
EXTT14=
PLAYORDER=
